<svg width="32" height="41" viewBox="0 0 32 41" fill="none" xmlns="http://www.w3.org/2000/svg">
<path d="M16.129 0.540344C9.03584 0.540344 3.25806 6.31812 3.25806 13.4113C3.25806 15.3991 4.08204 17.5151 5.21384 19.706C6.34564 21.8972 7.82455 24.1453 9.29635 26.1817C12.2399 30.2544 15.1738 33.5021 15.1738 33.5021C15.2944 33.6357 15.4418 33.7425 15.6064 33.8156C15.7709 33.8887 15.949 33.9265 16.129 33.9265C16.3091 33.9265 16.4871 33.8887 16.6517 33.8156C16.8162 33.7425 16.9636 33.6357 17.0843 33.5021C17.0843 33.5021 20.0181 30.2544 22.9617 26.1817C24.4335 24.1453 25.9124 21.8972 27.0442 19.706C28.176 17.5151 29 15.3991 29 13.4113C29 6.31812 23.2222 0.540344 16.129 0.540344ZM16.129 3.11454C21.831 3.11454 26.4258 7.70922 26.4258 13.4113C26.4258 14.6225 25.8018 16.5107 24.7616 18.5245C23.7214 20.538 22.3044 22.7031 20.8802 24.6734C18.5093 27.954 16.8589 29.7589 16.129 30.586C15.3992 29.7589 13.7488 27.954 11.3778 24.6734C9.95366 22.7031 8.5366 20.538 7.49643 18.5245C6.45625 16.5107 5.83225 14.6225 5.83225 13.4113C5.83225 7.70922 10.427 3.11454 16.129 3.11454ZM16.129 6.97583C13.3009 6.97583 10.9806 9.29621 10.9806 12.1242C10.9806 14.9525 13.3009 17.2726 16.129 17.2726C18.9572 17.2726 21.2774 14.9525 21.2774 12.1242C21.2774 9.29621 18.9572 6.97583 16.129 6.97583ZM16.129 9.55002C17.566 9.55002 18.7032 10.6873 18.7032 12.1242C18.7032 13.5611 17.566 14.6984 16.129 14.6984C14.6921 14.6984 13.5548 13.5611 13.5548 12.1242C13.5548 10.6873 14.6921 9.55002 16.129 9.55002Z" fill="#006600"/>
<g filter="url(#filter0_d_109_125)">
<path d="M16.1291 3.11456C10.4271 3.11456 5.83228 7.70924 5.83228 13.4113C5.83228 14.6225 6.45627 16.5107 7.49645 18.5245C8.53663 20.5381 9.95368 22.7031 11.3779 24.6734C13.7488 27.954 15.3992 29.7589 16.1291 30.586C16.8589 29.7589 18.5093 27.954 20.8802 24.6734C22.3044 22.7031 23.7215 20.5381 24.7616 18.5245C25.8018 16.5107 26.4258 14.6225 26.4258 13.4113C26.4258 7.70924 21.831 3.11456 16.1291 3.11456ZM16.1291 6.97585C18.9572 6.97585 21.2774 9.29623 21.2774 12.1242C21.2774 14.9525 18.9572 17.2726 16.1291 17.2726C13.3009 17.2726 10.9807 14.9525 10.9807 12.1242C10.9807 9.29623 13.3009 6.97585 16.1291 6.97585Z" fill="#006600"/>
<path d="M7.05221 18.754L7.05222 18.754C8.1082 20.7981 9.54084 22.9855 10.9726 24.9663C13.1641 27.9985 14.7466 29.7813 15.5566 30.6939C15.6286 30.775 15.6945 30.8492 15.7541 30.9169L16.1291 31.3417L16.504 30.9169C16.5636 30.8492 16.6295 30.775 16.7015 30.6939C17.5115 29.7813 19.094 27.9985 21.2855 24.9663C22.7173 22.9855 24.1499 20.7981 25.2059 18.754L25.2059 18.754C26.2544 16.724 26.9258 14.747 26.9258 13.4113C26.9258 7.43309 22.1072 2.61456 16.1291 2.61456C10.1509 2.61456 5.33228 7.43309 5.33228 13.4113C5.33228 14.747 6.00365 16.724 7.05221 18.754ZM16.1291 7.47585C18.681 7.47585 20.7774 9.57237 20.7774 12.1242C20.7774 14.6764 18.681 16.7726 16.1291 16.7726C13.5771 16.7726 11.4807 14.6764 11.4807 12.1242C11.4807 9.57237 13.5771 7.47585 16.1291 7.47585Z" stroke="#006600"/>
</g>
<path d="M13.5258 25.7984V18.5257H16.0684C16.5751 18.5257 16.9929 18.6133 17.322 18.7885C17.6511 18.9613 17.8961 19.1945 18.0571 19.488C18.2181 19.7792 18.2986 20.1024 18.2986 20.4575C18.2986 20.77 18.2429 21.028 18.1316 21.2316C18.0227 21.4352 17.8783 21.5962 17.6984 21.7146C17.5209 21.833 17.3279 21.9206 17.1196 21.9774V22.0484C17.3421 22.0626 17.5658 22.1407 17.7907 22.2828C18.0156 22.4248 18.2039 22.6284 18.3554 22.8936C18.5069 23.1587 18.5826 23.4831 18.5826 23.8666C18.5826 24.2312 18.4998 24.5591 18.3341 24.8502C18.1683 25.1414 17.9067 25.3723 17.5493 25.5427C17.1918 25.7132 16.7266 25.7984 16.1537 25.7984H13.5258ZM14.4065 25.0172H16.1537C16.7289 25.0172 17.1373 24.9059 17.3788 24.6833C17.6227 24.4584 17.7446 24.1862 17.7446 23.8666C17.7446 23.6204 17.6818 23.3931 17.5564 23.1848C17.4309 22.9741 17.2521 22.806 17.0201 22.6805C16.7881 22.5527 16.5135 22.4887 16.1963 22.4887H14.4065V25.0172ZM14.4065 21.7217H16.04C16.3052 21.7217 16.5443 21.6696 16.7574 21.5654C16.9728 21.4613 17.1432 21.3145 17.2687 21.1251C17.3966 20.9357 17.4605 20.7132 17.4605 20.4575C17.4605 20.1379 17.3492 19.8668 17.1267 19.6443C16.9041 19.4194 16.5514 19.3069 16.0684 19.3069H14.4065V21.7217Z" fill="#FFFF00"/>
<defs>
<filter id="filter0_d_109_125" x="0.832275" y="2.11456" width="30.5935" height="37.9828" filterUnits="userSpaceOnUse" color-interpolation-filters="sRGB">
<feFlood flood-opacity="0" result="BackgroundImageFix"/>
<feColorMatrix in="SourceAlpha" type="matrix" values="0 0 0 0 0 0 0 0 0 0 0 0 0 0 0 0 0 0 127 0" result="hardAlpha"/>
<feOffset dy="4"/>
<feGaussianBlur stdDeviation="2"/>
<feComposite in2="hardAlpha" operator="out"/>
<feColorMatrix type="matrix" values="0 0 0 0 0 0 0 0 0 0 0 0 0 0 0 0 0 0 0.25 0"/>
<feBlend mode="normal" in2="BackgroundImageFix" result="effect1_dropShadow_109_125"/>
<feBlend mode="normal" in="SourceGraphic" in2="effect1_dropShadow_109_125" result="shape"/>
</filter>
</defs>
</svg>
