<svg width="32" height="40" viewBox="0 0 32 40" fill="none" xmlns="http://www.w3.org/2000/svg">
<path d="M15.871 0C8.77778 0 3 5.77778 3 12.871C3 14.8588 3.82398 16.9748 4.95578 19.1657C6.08758 21.3568 7.5665 23.6049 9.03829 25.6414C11.9819 29.714 14.9157 32.9618 14.9157 32.9618C15.0364 33.0954 15.1838 33.2022 15.3483 33.2753C15.5129 33.3484 15.6909 33.3862 15.871 33.3862C16.051 33.3862 16.2291 33.3484 16.3936 33.2753C16.5582 33.2022 16.7055 33.0954 16.8262 32.9618C16.8262 32.9618 19.76 29.714 22.7036 25.6414C24.1754 23.6049 25.6544 21.3568 26.7862 19.1657C27.918 16.9748 28.7419 14.8588 28.7419 12.871C28.7419 5.77778 22.9642 0 15.871 0ZM15.871 2.57419C21.573 2.57419 26.1677 7.16887 26.1677 12.871C26.1677 14.0821 25.5437 15.9704 24.5036 17.9842C23.4634 19.9977 22.0463 22.1628 20.6222 24.1331C18.2512 27.4136 16.6008 29.2186 15.871 30.0457C15.1411 29.2186 13.4907 27.4136 11.1198 24.1331C9.6956 22.1628 8.27855 19.9977 7.23837 17.9842C6.19819 15.9704 5.57419 14.0821 5.57419 12.871C5.57419 7.16887 10.169 2.57419 15.871 2.57419ZM15.871 6.43548C13.0428 6.43548 10.7226 8.75586 10.7226 11.5839C10.7226 14.4121 13.0428 16.7323 15.871 16.7323C18.6991 16.7323 21.0194 14.4121 21.0194 11.5839C21.0194 8.75586 18.6991 6.43548 15.871 6.43548ZM15.871 9.00968C17.3079 9.00968 18.4452 10.147 18.4452 11.5839C18.4452 13.0208 17.3079 14.1581 15.871 14.1581C14.434 14.1581 13.2968 13.0208 13.2968 11.5839C13.2968 10.147 14.434 9.00968 15.871 9.00968Z" fill="#FF0000"/>
<g filter="url(#filter0_d_109_123)">
<path d="M15.871 2.57422C10.169 2.57422 5.57422 7.1689 5.57422 12.871C5.57422 14.0821 6.19822 15.9704 7.23839 17.9842C8.27857 19.9977 9.69563 22.1628 11.1198 24.1331C13.4908 27.4136 15.1411 29.2186 15.871 30.0457C16.6009 29.2186 18.2512 27.4136 20.6222 24.1331C22.0464 22.1628 23.4634 19.9977 24.5036 17.9842C25.5438 15.9704 26.1678 14.0821 26.1678 12.871C26.1678 7.1689 21.573 2.57422 15.871 2.57422ZM15.871 6.43551C18.6991 6.43551 21.0194 8.75589 21.0194 11.5839C21.0194 14.4122 18.6991 16.7323 15.871 16.7323C13.0429 16.7323 10.7226 14.4122 10.7226 11.5839C10.7226 8.75589 13.0429 6.43551 15.871 6.43551Z" fill="#FF0000"/>
<path d="M6.79416 18.2136L6.79417 18.2137C7.85014 20.2578 9.28278 22.4452 10.7146 24.426C12.906 27.4582 14.4885 29.241 15.2986 30.1536C15.3705 30.2347 15.4364 30.3089 15.4961 30.3765L15.871 30.8014L16.2459 30.3765C16.3056 30.3089 16.3715 30.2347 16.4434 30.1536C17.2535 29.241 18.836 27.4581 21.0274 24.426C22.4592 22.4452 23.8918 20.2578 24.9478 18.2137L24.9478 18.2136C25.9964 16.1836 26.6678 14.2066 26.6678 12.871C26.6678 6.89275 21.8491 2.07422 15.871 2.07422C9.89285 2.07422 5.07422 6.89275 5.07422 12.871C5.07422 14.2066 5.7456 16.1836 6.79416 18.2136ZM15.871 6.93551C18.423 6.93551 20.5194 9.03202 20.5194 11.5839C20.5194 14.136 18.423 16.2323 15.871 16.2323C13.319 16.2323 11.2226 14.136 11.2226 11.5839C11.2226 9.03202 13.319 6.93551 15.871 6.93551Z" stroke="#FF0000"/>
</g>
<path d="M14.0499 24.7419H13.1267L15.7971 17.4692H16.7062L19.3767 24.7419H18.4534L16.2801 18.6198H16.2232L14.0499 24.7419ZM14.3909 21.901H18.1124V22.6823H14.3909V21.901Z" fill="#FFFF00"/>
<defs>
<filter id="filter0_d_109_123" x="0.574219" y="1.57422" width="30.5935" height="37.9828" filterUnits="userSpaceOnUse" color-interpolation-filters="sRGB">
<feFlood flood-opacity="0" result="BackgroundImageFix"/>
<feColorMatrix in="SourceAlpha" type="matrix" values="0 0 0 0 0 0 0 0 0 0 0 0 0 0 0 0 0 0 127 0" result="hardAlpha"/>
<feOffset dy="4"/>
<feGaussianBlur stdDeviation="2"/>
<feComposite in2="hardAlpha" operator="out"/>
<feColorMatrix type="matrix" values="0 0 0 0 0 0 0 0 0 0 0 0 0 0 0 0 0 0 0.25 0"/>
<feBlend mode="normal" in2="BackgroundImageFix" result="effect1_dropShadow_109_123"/>
<feBlend mode="normal" in="SourceGraphic" in2="effect1_dropShadow_109_123" result="shape"/>
</filter>
</defs>
</svg>
